# xmcd
#
# Track frame offsets:
# 150
# 17285
# 34735
# 48942
# 62152
# 77942
# 96167
# 110225
# 125630
# 138942
# 156440
# 172367
# 188292
# 201320
#
# Disc length: 2871 seconds
#
#
# Revision: 0
# Processed by: cddbd v1.5.2PL0 Copyright (c) Steve Scherf et al.
# Submitted via: FreeRIP 2.944 
#
DISCID=c40b350e
DTITLE=Raça Negra - O melhor de 2
DYEAR=2000
DGENRE=pagode
TTITLE0=Deus me livre (ao vivo)
TTITLE1=Preciso desse amor (ao vivo)
TTITLE2=Cigana (ao vivo)
TTITLE3=Me leva junto com você (ao vivo)
TTITLE4=Cheio de manias
TTITLE5=É amor
TTITLE6=Desculpe, mas eu vou chorar
TTITLE7=Estou mal (ao vivo)
TTITLE8=Maravilha (ao vivo)
TTITLE9=Será
TTITLE10=Pro dia nascer feliz
TTITLE11=Que pena
TTITLE12=É paixão
TTITLE13=A vida inteira
EXTD=
EXTT0=
EXTT1=
EXTT2=
EXTT3=
EXTT4=
EXTT5=
EXTT6=
EXTT7=
EXTT8=
EXTT9=
EXTT10=
EXTT11=
EXTT12=
EXTT13=
PLAYORDER=
